<svg width="24" height="24" viewBox="0 0 24 24" fill="none" xmlns="http://www.w3.org/2000/svg">
<path d="M15.1638 19.2028H20.2282H20.3301L20.39 19.1203L21.1071 18.1332L21.1674 18.0502L21.1351 17.9528L20.2562 15.2979L15.1638 19.2028ZM15.1638 19.2028C15.1139 19.9746 14.7777 20.7158 14.2311 21.2623C13.6374 21.8561 12.8156 22.2 11.973 22.2C11.1289 22.2 10.3056 21.8546 9.71342 21.2624L9.71323 21.2622C9.1668 20.7143 8.8319 19.9743 8.78221 19.2028H3.71783H3.61604L3.55613 19.1205L2.83757 18.1334L2.77665 18.0497L2.8098 17.9516L3.70641 15.2993C3.70648 15.2991 3.70656 15.2988 3.70663 15.2986C4.07825 14.1718 4.26871 12.993 4.27089 11.8065V8.50637V8.50546C4.27578 7.43327 4.50164 6.3736 4.93437 5.39261C5.36513 4.41097 5.99906 3.53179 6.79438 2.81304C7.5862 2.07544 8.52598 1.52231 9.55817 1.19084C10.5912 0.841104 11.6787 0.730516 12.7467 0.841317L12.7506 0.841721L12.7506 0.841759C14.6833 1.0806 16.46 2.02423 17.74 3.49182C19.0243 4.95698 19.7196 6.84627 19.6916 8.79435V11.79C19.6927 12.9817 19.8833 14.1657 20.2561 15.2976L15.1638 19.2028ZM13.1744 19.5221C13.1206 19.6545 13.0438 19.7761 12.9478 19.8813H12.9466L12.8878 19.9413C12.7682 20.0633 12.6257 20.1604 12.4685 20.2271C12.3117 20.2936 12.1433 20.3285 11.973 20.3299C11.8024 20.3285 11.6337 20.2935 11.4767 20.2267C11.3192 20.1598 11.1765 20.0624 11.0569 19.94L11.057 19.94L11.0537 19.9368C10.9316 19.8174 10.8342 19.6749 10.7673 19.5177C10.7269 19.4228 10.6981 19.3236 10.6813 19.2223H13.2533C13.24 19.3249 13.2136 19.4257 13.1744 19.5221ZM18.9276 17.3326H5.02933L5.5037 15.9082C5.5037 15.9082 5.50371 15.9082 5.50371 15.9082C5.94441 14.5862 6.17218 13.2026 6.17852 11.8091V11.8081V8.50637C6.17852 7.69028 6.35245 6.89324 6.68136 6.16444L6.68136 6.16444L6.68201 6.16297C7.01171 5.41644 7.4797 4.75794 8.08527 4.22174L8.08528 4.22176L8.08743 4.2198C8.69566 3.66527 9.40717 3.24838 10.1674 3.00702L10.1674 3.00704L10.1703 3.00606C10.9495 2.74536 11.7628 2.65851 12.5582 2.74496C14.0209 2.93783 15.3619 3.66104 16.3266 4.77733C17.2919 5.89543 17.8109 7.33034 17.7841 8.80727L17.784 8.80727V8.8109V11.8262C17.784 13.2106 18.0033 14.5959 18.4591 15.927C18.4592 15.9273 18.4593 15.9275 18.4594 15.9278L18.9276 17.3326Z" fill="#4B4B4B" stroke="#4B4B4B" stroke-width="0.4"/>
</svg>
