<svg width="30" height="30" viewBox="0 0 30 30" fill="none" xmlns="http://www.w3.org/2000/svg">
<path d="M14.9999 20.4546C18.0124 20.4546 20.4545 18.0125 20.4545 15C20.4545 11.9875 18.0124 9.54546 14.9999 9.54546C11.9875 9.54546 9.54539 11.9875 9.54539 15C9.54539 18.0125 11.9875 20.4546 14.9999 20.4546Z" fill="#0066FF" fill-opacity="0.5"/>
<path fill-rule="evenodd" clip-rule="evenodd" d="M21.6307 4.67093C20.4063 3.88328 19.0327 3.3074 17.5617 2.99504L16.3637 0H13.6364L12.4384 2.995C10.9491 3.31123 9.55963 3.89758 8.32372 4.70034L5.35765 3.42917L3.42918 5.35765L4.70034 8.32369C3.89756 9.55961 3.3112 10.9491 2.99497 12.4384L0 13.6364V16.3637L2.99497 17.5616C3.33766 19.1755 3.99755 20.6722 4.90632 21.9832L3.69149 24.8178L5.61996 26.7463L8.59538 25.4711C9.76195 26.1862 11.0572 26.7118 12.4383 27.005L13.6363 30H16.3636L17.5616 27.005C19.074 26.6839 20.4834 26.0842 21.7336 25.2622L24.6858 26.5274L26.6143 24.5989L25.337 21.6184C26.2565 20.1852 26.8861 18.5483 27.143 16.7903L30 15.6475V12.9203L26.808 11.6435C26.4654 10.4357 25.9424 9.30376 25.2701 8.27855L26.5366 5.32335L24.6081 3.39488L21.6307 4.67093ZM6.1624 15C6.1624 19.8809 10.1191 23.8376 15 23.8376C19.8808 23.8376 23.8375 19.8809 23.8375 15C23.8375 10.1192 19.8808 6.16245 15 6.16245C10.1191 6.16245 6.1624 10.1192 6.1624 15Z" fill="#0066FF" fill-opacity="0.5"/>
</svg>
