<svg width="15" height="15" viewBox="0 0 15 15" fill="none" xmlns="http://www.w3.org/2000/svg">
<path d="M3.75015 14.793C3.23221 14.793 2.5655 14.6178 1.89974 13.9521C1.02175 13.0741 0.911167 12.2267 0.972917 11.6696C1.04531 11.0168 1.37952 10.3877 1.96567 9.80133L7.55395 4.21305C9.1148 2.65277 10.1531 3.22353 10.6331 3.70309C11.2137 4.28392 11.5945 5.28731 10.1112 6.77026L4.96634 11.9151L3.96485 10.9136L9.10967 5.76877C9.90235 4.97571 9.71976 4.79312 9.63122 4.70458C9.56111 4.63447 9.34812 4.42243 8.55544 5.21454L2.96716 10.8028C2.72415 11.0462 2.42528 11.4207 2.38063 11.8264C2.34016 12.1915 2.51021 12.5596 2.9018 12.9504C3.38725 13.4364 3.75433 13.3847 3.87555 13.3673C4.20615 13.3211 4.5833 13.0933 4.96596 12.7106C5.44001 12.2377 11.1592 6.51832 11.5971 6.07942C12.1385 5.53811 12.4825 5.01162 12.6199 4.51458C12.819 3.79524 12.5808 3.11105 11.8922 2.42211C11.1655 1.69536 9.99488 0.934601 8.2237 2.70616L2.10361 8.82663C2.03786 8.89242 1.9598 8.9446 1.87388 8.98021C1.78796 9.01581 1.69587 9.03414 1.60286 9.03414C1.50986 9.03414 1.41776 9.01581 1.33184 8.98021C1.24592 8.9446 1.16786 8.89242 1.10212 8.82663C1.03631 8.7609 0.984103 8.68284 0.948484 8.59692C0.912865 8.511 0.894531 8.4189 0.894531 8.32589C0.894531 8.23287 0.912865 8.14077 0.948484 8.05485C0.984103 7.96893 1.03631 7.89087 1.10212 7.82514L7.22259 1.70486C9.11442 -0.187538 11.1814 -0.291658 12.8939 1.42081C14.2218 2.74872 14.2203 4.04072 13.9858 4.89192C13.7793 5.63881 13.326 6.35435 12.5994 7.0811C12.1609 7.52 6.44074 13.2401 5.96764 13.7125C5.35812 14.323 4.72048 14.6788 4.07391 14.7702C3.96668 14.7857 3.85848 14.7933 3.75015 14.793Z" fill="#4B4B4B"/>
</svg>
