<svg width="15" height="15" viewBox="0 0 15 15" fill="none" xmlns="http://www.w3.org/2000/svg">
<path d="M7.5 0C6.01664 0 4.56659 0.439867 3.33323 1.26398C2.09986 2.08809 1.13856 3.25943 0.570907 4.62987C0.00324965 6.00032 -0.145275 7.50832 0.144114 8.96317C0.433503 10.418 1.14781 11.7544 2.1967 12.8033C3.2456 13.8522 4.58197 14.5665 6.03682 14.8559C7.49168 15.1453 8.99968 14.9967 10.3701 14.4291C11.7406 13.8614 12.9119 12.9001 13.736 11.6668C14.5601 10.4334 15 8.98336 15 7.5C14.9977 5.51157 14.2068 3.60524 12.8008 2.1992C11.3948 0.793173 9.48843 0.0022686 7.5 0ZM1.07143 7.5C1.0729 6.76952 1.19974 6.04471 1.44643 5.35714H4.28572L6.96429 7.5L5.46429 9.47839C5.38694 9.58156 5.34939 9.70916 5.35854 9.83778C5.3677 9.96639 5.42293 10.0874 5.51411 10.1786L6.96429 11.7857V13.9018C5.35889 13.7663 3.86274 13.0334 2.77161 11.8481C1.68048 10.6627 1.07377 9.1111 1.07143 7.5ZM10.4116 13.2241L11.7755 9.0991C11.795 9.00157 11.7869 8.90055 11.7522 8.80735C11.7174 8.71415 11.6575 8.63246 11.5789 8.57143L6.96429 4.82143L8.03572 3.75H10.8643C10.9767 3.74991 11.0862 3.71448 11.1773 3.64872C11.2685 3.58296 11.3366 3.4902 11.3721 3.38357L11.6373 2.5875C12.4501 3.26952 13.0809 4.14248 13.4734 5.12819C13.866 6.1139 14.0078 7.18158 13.8864 8.23559C13.7649 9.28961 13.3839 10.297 12.7775 11.1676C12.1711 12.0382 11.3582 12.7448 10.4116 13.2241Z" fill="#4B4B4B"/>
</svg>
