<svg width="14" height="14" viewBox="0 0 14 14" fill="none" xmlns="http://www.w3.org/2000/svg">
<path fill-rule="evenodd" clip-rule="evenodd" d="M0 7C0 3.13416 3.13416 0 7 0C10.8658 0 14 3.13416 14 7C14 10.8658 10.8658 14 7 14C3.13416 14 0 10.8658 0 7ZM6.33398 6.96094V4.53857H7.2793C7.73763 4.53857 8.08854 4.646 8.33203 4.86084C8.57552 5.0721 8.69727 5.36751 8.69727 5.74707C8.69727 6.13021 8.57373 6.4292 8.32666 6.64404C8.08317 6.85531 7.73047 6.96094 7.26855 6.96094H6.33398ZM6.33398 9.96338H8.43408V8.96436H6.33398V8.19629H7.67676C8.46452 8.19629 9.10547 7.96533 9.59961 7.50342C10.0938 7.0415 10.3408 6.45068 10.3408 5.73096C10.3408 5.00049 10.1027 4.4043 9.62646 3.94238C9.15381 3.48047 8.53255 3.24951 7.7627 3.24951H4.71191V6.98242H3.73975V8.16943H4.71191V8.96436H3.73975V9.96338H4.71191V11H6.33398V9.96338Z" fill="white"/>
</svg>
