<svg width="14" height="14" viewBox="0 0 14 14" fill="none" xmlns="http://www.w3.org/2000/svg">
<path fill-rule="evenodd" clip-rule="evenodd" d="M0 7C0 3.13416 3.13416 0 7 0C10.8658 0 14 3.13416 14 7C14 10.8658 10.8658 14 7 14C3.13416 14 0 10.8658 0 7ZM9.33643 10.3286C9.83415 9.87744 10.083 9.28662 10.083 8.55615C10.083 7.84001 9.82878 7.26172 9.32031 6.82129C8.81543 6.38086 8.15658 6.16064 7.34375 6.16064H5.83984V4.58691H9.36865V3.24951H4.21777V11H7.39746C8.19596 11 8.84229 10.7762 9.33643 10.3286ZM6.99463 9.70557H5.83984V7.396H6.98926C7.44759 7.396 7.80029 7.49626 8.04736 7.69678C8.29801 7.8973 8.42334 8.18376 8.42334 8.55615C8.42334 8.92855 8.29801 9.21322 8.04736 9.41016C7.80029 9.6071 7.44938 9.70557 6.99463 9.70557Z" fill="white"/>
</svg>
